# xmcd
#
# Track frame offsets:
#	150
#	8390
#	32044
#	40632
#	59140
#	74796
#	91097
#	106719
#	122610
#	141944
#	159475
#	179790
#	198387
#	218500
#	232263
#
# Disc length: 3337 seconds
#
# Revision: 0
# Processed by: cddbd v1.5.2PL0 Copyright (c) Steve Scherf et al.
# Submitted via: EasyCDDAExtractor 12.0.1.1
#
DISCID=d10d070f
DTITLE=Various Artist - Μεγάλα Ερωτικά
DYEAR=2012
DGENRE=Greek
TTITLE0=Άγγελος Διονυσίου - Παραπονό μου
TTITLE1=Άννα Βίσση - Ατμόσφαιρα Ηλεκτρισμένη
TTITLE2=Σταμάτης Γονίδης - Διπρόσωπη
TTITLE3=Καίτη Γαρμπή - Διονύσης Σχοινάς - Ζήσαμε
TTITLE4=Κέλλυ Κελεκίδου - Μα το Θεό
TTITLE5=Άντζελα Δημητρίου - Φταίει ο έρωτας
TTITLE6=Λευτέρης Πανταζής - Ταραχή
TTITLE7=Πασχάλης Τερζής - Δε με κατάλαβες ποτέ
TTITLE8=Φανή Δρακοπούλου - Πάλι σκέφτομαι με την καρδιά μου
TTITLE9=Νίκος Κουρκούλης - Ζήλεια μου παράπονο μου
TTITLE10=Γιώργος Αλκαίος - Μάτια θλιμμένα
TTITLE11=Καίτη Γαρμπή - Πως αλλάζει ο καιρός - Άνεμος
TTITLE12=Νίκος Καρβέλας - Μούρη
TTITLE13=Θάνος Καλλίρης - Καταστροφή μου
TTITLE14=Λάμπης Λιβιεράτος - Να γυρίσεις πάλι πίσω
EXTD=
EXTT0=
EXTT1=
EXTT2=
EXTT3=
EXTT4=
EXTT5=
EXTT6=
EXTT7=
EXTT8=
EXTT9=
EXTT10=
EXTT11=
EXTT12=
EXTT13=
EXTT14=
PLAYORDER=
